<mxfile host="app.diagrams.net" agent="Mozilla/5.0 (Macintosh; Intel Mac OS X 10_15_7) AppleWebKit/537.36 (KHTML, like Gecko) Chrome/137.0.0.0 Safari/537.36" version="26.2.14">
  <diagram name="Page-1" id="id74x5UK5H2qFDDdm7mn">
    <mxGraphModel dx="976" dy="563" grid="1" gridSize="10" guides="1" tooltips="1" connect="1" arrows="1" fold="1" page="1" pageScale="1" pageWidth="850" pageHeight="1100" math="0" shadow="0">
      <root>
        <mxCell id="0" />
        <mxCell id="1" parent="0" />
        <mxCell id="AQ8zytLoEVvj61M19kX1-5" style="edgeStyle=orthogonalEdgeStyle;rounded=0;orthogonalLoop=1;jettySize=auto;html=1;exitX=1;exitY=0.5;exitDx=0;exitDy=0;" edge="1" parent="1" source="AQ8zytLoEVvj61M19kX1-1" target="AQ8zytLoEVvj61M19kX1-2">
          <mxGeometry relative="1" as="geometry" />
        </mxCell>
        <mxCell id="AQ8zytLoEVvj61M19kX1-1" value="Input" style="rounded=1;whiteSpace=wrap;html=1;" vertex="1" parent="1">
          <mxGeometry x="40" y="120" width="80" height="40" as="geometry" />
        </mxCell>
        <mxCell id="AQ8zytLoEVvj61M19kX1-7" style="edgeStyle=orthogonalEdgeStyle;rounded=0;orthogonalLoop=1;jettySize=auto;html=1;exitX=1;exitY=0.5;exitDx=0;exitDy=0;entryX=0;entryY=0.5;entryDx=0;entryDy=0;" edge="1" parent="1" source="AQ8zytLoEVvj61M19kX1-2" target="AQ8zytLoEVvj61M19kX1-6">
          <mxGeometry relative="1" as="geometry" />
        </mxCell>
        <mxCell id="AQ8zytLoEVvj61M19kX1-2" value="Backbone network" style="rounded=1;whiteSpace=wrap;html=1;" vertex="1" parent="1">
          <mxGeometry x="200" y="120" width="80" height="40" as="geometry" />
        </mxCell>
        <mxCell id="AQ8zytLoEVvj61M19kX1-3" value="Prediction head 1" style="rounded=1;whiteSpace=wrap;html=1;" vertex="1" parent="1">
          <mxGeometry x="520" y="40" width="80" height="40" as="geometry" />
        </mxCell>
        <mxCell id="AQ8zytLoEVvj61M19kX1-4" value="Prediction head 2" style="rounded=1;whiteSpace=wrap;html=1;" vertex="1" parent="1">
          <mxGeometry x="520" y="200" width="80" height="40" as="geometry" />
        </mxCell>
        <mxCell id="AQ8zytLoEVvj61M19kX1-8" style="edgeStyle=orthogonalEdgeStyle;rounded=0;orthogonalLoop=1;jettySize=auto;html=1;exitX=0.5;exitY=0;exitDx=0;exitDy=0;entryX=0;entryY=0.5;entryDx=0;entryDy=0;" edge="1" parent="1" source="AQ8zytLoEVvj61M19kX1-6" target="AQ8zytLoEVvj61M19kX1-3">
          <mxGeometry relative="1" as="geometry" />
        </mxCell>
        <mxCell id="AQ8zytLoEVvj61M19kX1-9" style="edgeStyle=orthogonalEdgeStyle;rounded=0;orthogonalLoop=1;jettySize=auto;html=1;exitX=0.5;exitY=1;exitDx=0;exitDy=0;entryX=0;entryY=0.5;entryDx=0;entryDy=0;" edge="1" parent="1" source="AQ8zytLoEVvj61M19kX1-6" target="AQ8zytLoEVvj61M19kX1-4">
          <mxGeometry relative="1" as="geometry" />
        </mxCell>
        <mxCell id="AQ8zytLoEVvj61M19kX1-6" value="Feature map" style="rounded=1;whiteSpace=wrap;html=1;" vertex="1" parent="1">
          <mxGeometry x="360" y="120" width="80" height="40" as="geometry" />
        </mxCell>
      </root>
    </mxGraphModel>
  </diagram>
</mxfile>
